Coordinates
version=1
nRows=5
nColumns=40
inDegrees=yes

Units are S.I. units (second, meters, Newtons, ...)
Angles are in degrees.

endheader
time	pelvis_tilt	pelvis_list	pelvis_rotation	pelvis_tx	pelvis_ty	pelvis_tz	hip_flexion_r	hip_adduction_r	hip_rotation_r	knee_angle_r	knee_angle_r_beta	ankle_angle_r	subtalar_angle_r	mtp_angle_r	hip_flexion_l	hip_adduction_l	hip_rotation_l	knee_angle_l	knee_angle_l_beta	ankle_angle_l	subtalar_angle_l	mtp_angle_l	lumbar_extension	lumbar_bending	lumbar_rotation	arm_flex_r	arm_add_r	arm_rot_r	elbow_flex_r	pro_sup_r	wrist_flex_r	wrist_dev_r	arm_flex_l	arm_add_l	arm_rot_l	elbow_flex_l	pro_sup_l	wrist_flex_l	wrist_dev_l
     14.76500000	     -4.45123416	     -4.36780728	      3.76269689	      1.08850200	      0.93253248	      0.48787658	     10.20700956	      2.71375926	    -17.01875237	     13.49711925	     13.49711925	      9.89515432	      3.02153123	     -5.36105520	     32.66998072	    -10.93048280	     -2.29548722	     32.80582898	     32.80582898	      9.75769841	    -16.64077835	     10.06077228	    -11.65756628	      6.14467464	      2.30602104	     29.15305879	    -19.67494194	     -2.53912907	     73.29092929	     45.03030251	      0.00000000	      0.00000000	     -2.36810254	     -7.95049868	    -11.48628233	     27.24104709	     46.86228907	      0.00000000	      0.00000000
     14.77857143	     -4.63270332	     -4.44896494	      4.03055058	      1.08695880	      0.93241283	      0.48759426	      9.92066622	      2.80849302	    -17.31453692	     13.11586936	     13.11586936	      9.99084616	      3.28003435	     -5.37240298	     32.62220626	    -10.64235724	     -2.58293468	     28.93258198	     28.93258198	      9.84237827	    -15.39079448	     10.40677150	    -11.62227020	      6.29508372	      2.41254420	     30.29670882	    -19.55812384	     -2.70716903	     74.25578100	     45.01345853	      0.00000000	      0.00000000	     -2.84089448	     -7.88064614	    -11.63131081	     26.98834082	     46.87555371	      0.00000000	      0.00000000
     14.79214286	     -4.87014048	     -4.54953092	      4.29798786	      1.08542344	      0.93213867	      0.48714922	      9.69377284	      2.90577335	    -17.65409148	     12.73029781	     12.73029781	     10.08096491	      3.60814399	     -5.39821882	     32.67623272	    -10.35969275	     -2.76837769	     25.40409439	     25.40409439	      9.86114078	    -13.80012694	     10.76102763	    -11.51644583	      6.48201531	      2.52569460	     31.34308967	    -19.39250781	     -2.82905061	     75.14806000	     44.99584323	      0.00000000	      0.00000000	     -3.27954255	     -7.76456447	    -11.73397183	     26.81172296	     46.88307204	      0.00000000	      0.00000000
     14.80571429	     -4.95264744	     -4.64466219	      4.52593678	      1.08413777	      0.93203729	      0.48661550	      9.24967618	      3.01340937	    -18.07801365	     12.28722984	     12.28722984	     10.21686404	      4.14631779	     -5.42954310	     32.56147215	    -10.13733839	     -3.00936913	     22.28041464	     22.28041464	      9.92480241	    -11.98998408	     11.02619284	    -11.57163573	      6.65041443	      2.55027461	     32.33027106	    -19.04689276	     -2.94297561	     76.15162842	     44.97544102	      0.00000000	      0.00000000	     -3.71133481	     -7.73406078	    -11.88711989	     26.67755090	     46.89868577	      0.00000000	      0.00000000
     14.81928571	     -5.10770502	     -4.78476944	      4.72769718	      1.08279232	      0.93175538	      0.48596211	      8.94602303	      3.15112334	    -18.39999401	     11.93959087	     11.93959087	     10.33579633	      4.55086402	     -5.45450542	     32.66724782	     -9.98135017	     -3.16072296	     19.78461865	     19.78461865	      9.91275026	    -10.22497324	     11.32046950	    -11.54388063	      6.86714666	      2.64671896	     33.22935894	    -18.76961426	     -3.04502277	     76.86964481	     44.96323584	      0.00000000	      0.00000000	     -4.02518182	     -7.64340230	    -12.00254138	     26.62237941	     46.91005363	      0.00000000	      0.00000000
